HIERARCHY
ROOT Hips
{
    OFFSET 0.000000 0.000000 0.000000
    CHANNELS 6 Xposition Yposition Zposition Zrotation Xrotation Yrotation
        JOINT Chest
        {
            OFFSET -0.000000 26.978363 -0.000000
            CHANNELS 3 Zrotation Xrotation Yrotation
            JOINT Neck
            {
                OFFSET -0.000000 19.720629 0.000000
                CHANNELS 3 Zrotation Xrotation Yrotation
                JOINT Head
                {
                    OFFSET -0.000000 9.655557 0.000000
                    CHANNELS 3 Zrotation Xrotation Yrotation
                    End Site
                    {
                        OFFSET -0.000000 14.922232 0.000000
                    }
                }
            }
            JOINT LeftCollar
            {
                OFFSET -0.000000 19.720629 0.000000
                CHANNELS 3 Zrotation Xrotation Yrotation
                JOINT LeftShoulder
                {
                    OFFSET 17.555553 -0.000000 0.000000
                    CHANNELS 3 Zrotation Xrotation Yrotation
                    JOINT LeftElbow
                    {
                        OFFSET 22.589397 0.000000 0.000000
                        CHANNELS 3 Zrotation Xrotation Yrotation
                        JOINT LeftWrist
                        {
                            OFFSET 20.401022 0.000000 0.000000
                            CHANNELS 3 Zrotation Xrotation Yrotation
                            End Site
                            {
                                OFFSET 0.000000 -13.166666 0.000000
                            }
                        }
                    }
                }
            }
            JOINT RightCollar
            {
                OFFSET -0.000000 19.720629 0.000000
                CHANNELS 3 Zrotation Xrotation Yrotation
                JOINT RightShoulder
                {
                    OFFSET -17.555553 0.000000 0.000000
                    CHANNELS 3 Zrotation Xrotation Yrotation
                    JOINT RightElbow
                    {
                        OFFSET -22.589397 0.000000 0.000000
                        CHANNELS 3 Zrotation Xrotation Yrotation
                        JOINT RightWrist
                        {
                            OFFSET -20.401022 0.000000 0.000000
                            CHANNELS 3 Zrotation Xrotation Yrotation
                            End Site
                            {
                                OFFSET -0.000000 -13.166666 0.000000
                            }
                        }
                    }
                }
            }
        }
    JOINT LeftHip
    {
        OFFSET 10.533332 0.000000 0.000000
        CHANNELS 3 Zrotation Xrotation Yrotation
        JOINT LeftKnee
        {
            OFFSET -0.000000 -40.048210 0.000000
            CHANNELS 3 Zrotation Xrotation Yrotation
            JOINT LeftAnkle
            {
                OFFSET -0.000000 -36.098888 0.000000
                CHANNELS 3 Zrotation Xrotation Yrotation
                End Site
                {
                    OFFSET -0.000000 -4.388888 14.922232
                }
            }
        }
    }
    JOINT RightHip
    {
        OFFSET -10.533332 0.000000 0.000000
        CHANNELS 3 Zrotation Xrotation Yrotation
        JOINT RightKnee
        {
            OFFSET -0.000000 -40.048210 0.000000
            CHANNELS 3 Zrotation Xrotation Yrotation
            JOINT RightAnkle
            {
                OFFSET -0.000000 -36.098888 0.000000
                CHANNELS 3 Zrotation Xrotation Yrotation
                End Site
                {
                    OFFSET -0.000000 -4.388888 14.922232
                }
            }
        }
    }
}
MOTION
Frames:    10
Frame Time:    0.010000
43.074356    81.157295    -24.728479    2.142452    0.359676    -10.795899    -2.129380    -2.982808    -1.863814    7.047757    -4.007442    0.584924    1.029949    9.659948    0.255159    -25.712069    0.466636    -1.921902    15.602530    59.684910    -74.179398    21.719954    -10.467824    -51.131115    121.663254    6.499368    77.687164    13.691383    -0.450840    -3.521260    62.223736    19.641211    15.178404    38.160534    7.387103    21.220692    -110.798065    -68.058800    17.108946    5.192375    -13.323050    11.108335    9.683405    35.961929    -0.805703    -16.291063    -22.330139    -7.408165    -13.320564    -18.323545    -13.942074    -5.585620    34.880634    -8.205186    17.053497    -17.744339    11.051957    
43.095539    81.015556    -24.809544    2.231869    0.363070    -10.700060    -2.247710    -3.141720    -1.867969    7.457093    -3.501358    0.841903    0.653514    9.406675    0.557602    -25.928509    0.371594    -1.181667    17.533607    59.390102    -75.744141    22.253115    -10.809615    -50.607502    120.489883    5.938393    78.205475    13.847750    -0.400191    -2.914098    62.183037    19.657902    14.971111    38.281765    7.455037    21.248083    -111.448769    -67.814774    16.531548    5.120640    -13.766345    10.967261    9.785215    36.680710    -1.354094    -15.878837    -22.689457    -6.883955    -13.502946    -18.672459    -14.442853    -5.969316    35.442066    -7.625455    17.051348    -18.003378    11.091729    
43.101723    80.945465    -24.751329    2.272261    0.109712    -10.761816    -2.386288    -3.063133    -1.757736    7.443611    -3.373170    0.830205    0.746192    9.449119    0.546030    -26.061150    0.295007    -1.026890    17.861050    59.514084    -75.943878    22.341427    -10.779423    -50.706352    120.881554    6.314467    78.215805    13.917483    -0.369373    -2.815896    62.321285    19.672567    14.732181    38.076805    7.423275    21.354231    -111.670120    -68.056671    16.415937    5.008754    -13.568682    11.095534    9.909488    36.888149    -1.767947    -15.762887    -23.025423    -6.558819    -13.579072    -18.509859    -14.320095    -6.015839    35.553913    -8.062694    17.265430    -17.909481    11.588534    
43.112305    80.893631    -24.752403    2.291899    0.024173    -10.757658    -2.428662    -3.099249    -1.701837    7.446342    -3.273159    0.756889    0.722266    9.433269    0.479373    -26.201603    0.253218    -0.974149    18.529877    59.579178    -76.515221    22.441168    -10.790919    -50.677002    120.785690    6.335431    78.327156    13.932003    -0.350294    -2.922002    62.346672    19.684448    14.648021    37.995594    7.428499    21.476858    -111.925644    -68.061485    16.220703    4.968042    -13.603295    11.102764    9.982185    37.131382    -2.008179    -15.649315    -23.221703    -6.371255    -13.628597    -18.531488    -14.361360    -6.109096    35.727161    -8.075583    17.327570    -17.953382    11.728412    
43.122364    80.848099    -24.749460    2.295917    -0.062554    -10.755949    -2.451551    -3.177051    -1.630004    7.486328    -3.114662    0.691044    0.647525    9.406116    0.427761    -26.376211    0.228076    -0.888037    19.175798    59.650982    -77.048607    22.543062    -10.814342    -50.641235    120.698318    6.348386    78.411438    13.946592    -0.351048    -2.997824    62.391178    19.710133    14.480508    37.902519    7.455855    21.622908    -112.158455    -68.036224    16.043390    4.940648    -13.616446    11.125878    10.065434    37.346420    -2.226560    -15.555987    -23.409069    -6.230019    -13.654612    -18.534334    -14.358093    -6.178824    35.880394    -8.119438    17.381363    -17.994835    11.848013    
43.130421    80.813789    -24.741190    2.279170    -0.143191    -10.756786    -2.445818    -3.297155    -1.544831    7.539633    -2.928662    0.612239    0.533616    9.371057    0.367773    -26.578218    0.196795    -0.806270    19.788168    59.766331    -77.556648    22.644899    -10.848003    -50.597641    120.632652    6.360334    78.466515    13.949481    -0.385514    -3.092433    62.451790    19.754505    14.241338    37.798241    7.494357    21.802818    -112.383698    -67.990776    15.872495    4.932641    -13.601133    11.164524    10.153404    37.507847    -2.408768    -15.485946    -23.574366    -6.144990    -13.647929    -18.513071    -14.300874    -6.213637    35.995850    -8.196624    17.418329    -18.030828    11.930949    
43.135338    80.795410    -24.726185    2.239630    -0.212467    -10.760143    -2.411493    -3.457228    -1.450162    7.608456    -2.721798    0.527131    0.383141    9.333096    0.307613    -26.795286    0.165429    -0.725373    20.305368    59.925373    -77.983093    22.720028    -10.855354    -50.577599    120.602341    6.381875    78.489166    13.942725    -0.413162    -3.191929    62.515217    19.781759    13.966097    37.759201    7.539119    21.900160    -112.649887    -67.986748    15.691597    4.946957    -13.550473    11.215807    10.237031    37.594059    -2.549193    -15.435979    -23.707813    -6.111067    -13.604331    -18.461849    -14.186327    -6.204721    36.057156    -8.303354    17.430626    -18.058817    11.961839    
43.136139    80.797012    -24.702511    2.178222    -0.268989    -10.766010    -2.351449    -3.645593    -1.349927    7.682616    -2.516913    0.436657    0.209487    9.300961    0.242905    -27.011337    0.148254    -0.658185    20.681246    60.114555    -78.292999    22.736128    -10.843448    -50.595284    120.633331    6.415678    78.459412    13.924642    -0.392322    -3.303168    62.567139    19.763643    13.712535    37.792931    7.582716    21.900146    -112.884048    -68.020111    15.562705    4.983199    -13.456734    11.279766    10.309431    37.588604    -2.656192    -15.399227    -23.803862    -6.112084    -13.524595    -18.372339    -14.015880    -6.145822    36.049397    -8.433963    17.412624    -18.075563    11.930366    
43.132038    80.821655    -24.667969    2.098657    -0.314495    -10.773925    -2.273851    -3.848174    -1.248085    7.763640    -2.323930    0.355408    0.020474    9.279214    0.178644    -27.211210    0.130666    -0.600554    20.915237    60.329288    -78.494553    22.706774    -10.852416    -50.619648    120.692032    6.426576    78.365982    13.889950    -0.424611    -3.406827    62.645050    19.764664    13.413776    37.736099    7.590149    22.061670    -112.799622    -67.958229    15.679679    5.037639    -13.312827    11.360096    10.367877    37.480637    -2.748414    -15.367484    -23.859724    -6.126374    -13.414015    -18.234932    -13.795704    -6.034149    35.959213    -8.585209    17.362503    -18.075909    11.835843    
43.122299    80.871315    -24.620708    2.006250    -0.351428    -10.782384    -2.186269    -4.050012    -1.149407    7.841854    -2.162221    0.278094    -0.170893    9.272691    0.119304    -27.381319    0.166657    -0.561398    20.915741    60.529003    -78.492195    22.598660    -10.785246    -50.719559    120.766891    6.425873    78.225189    13.839829    -0.449611    -3.506101    62.729034    19.716080    13.118782    37.753162    7.644732    22.069078    -112.756210    -67.934448    15.759122    5.104621    -13.114446    11.457940    10.410284    37.264900    -2.842341    -15.333825    -23.873653    -6.133997    -13.280328    -18.041574    -13.537475    -5.871844    35.775764    -8.755930    17.282389    -18.052578    11.687209    
